<mxfile host="app.diagrams.net" agent="Mozilla/5.0 (Windows NT 10.0; Win64; x64) AppleWebKit/537.36 (KHTML, like Gecko) Chrome/126.0.0.0 YaBrowser/24.7.0.0 Safari/537.36" version="24.7.17">
  <diagram name="Страница — 1" id="70p1UIAKUPXs_iUVCdoC">
    <mxGraphModel dx="2113" dy="500" grid="1" gridSize="10" guides="1" tooltips="1" connect="1" arrows="1" fold="1" page="1" pageScale="1" pageWidth="1200" pageHeight="1920" math="0" shadow="0">
      <root>
        <mxCell id="0" />
        <mxCell id="1" parent="0" />
        <mxCell id="8YpLksILpJDQ-rm5mKkd-4" style="edgeStyle=orthogonalEdgeStyle;rounded=0;orthogonalLoop=1;jettySize=auto;html=1;entryX=0;entryY=0.25;entryDx=0;entryDy=0;dashed=1;strokeWidth=4;" edge="1" parent="1" source="KWVQ8asaE6--88MjjyIy-2" target="KWVQ8asaE6--88MjjyIy-3">
          <mxGeometry relative="1" as="geometry">
            <Array as="points">
              <mxPoint x="60" y="108" />
            </Array>
          </mxGeometry>
        </mxCell>
        <mxCell id="8YpLksILpJDQ-rm5mKkd-3" style="edgeStyle=orthogonalEdgeStyle;rounded=0;orthogonalLoop=1;jettySize=auto;html=1;entryX=0.5;entryY=1;entryDx=0;entryDy=0;dashed=1;strokeWidth=4;" edge="1" parent="1" source="KWVQ8asaE6--88MjjyIy-5" target="KWVQ8asaE6--88MjjyIy-22">
          <mxGeometry relative="1" as="geometry" />
        </mxCell>
        <mxCell id="8YpLksILpJDQ-rm5mKkd-6" style="edgeStyle=orthogonalEdgeStyle;rounded=0;orthogonalLoop=1;jettySize=auto;html=1;entryX=0.5;entryY=1;entryDx=0;entryDy=0;strokeWidth=4;dashed=1;" edge="1" parent="1" source="KWVQ8asaE6--88MjjyIy-7" target="KWVQ8asaE6--88MjjyIy-10">
          <mxGeometry relative="1" as="geometry" />
        </mxCell>
        <mxCell id="8YpLksILpJDQ-rm5mKkd-5" style="edgeStyle=orthogonalEdgeStyle;rounded=0;orthogonalLoop=1;jettySize=auto;html=1;entryX=1;entryY=0.25;entryDx=0;entryDy=0;exitX=0.5;exitY=0;exitDx=0;exitDy=0;dashed=1;strokeWidth=4;" edge="1" parent="1" source="KWVQ8asaE6--88MjjyIy-9" target="KWVQ8asaE6--88MjjyIy-3">
          <mxGeometry relative="1" as="geometry">
            <Array as="points">
              <mxPoint x="665" y="108" />
            </Array>
          </mxGeometry>
        </mxCell>
        <mxCell id="KWVQ8asaE6--88MjjyIy-29" style="edgeStyle=orthogonalEdgeStyle;rounded=0;orthogonalLoop=1;jettySize=auto;html=1;entryX=0.5;entryY=1;entryDx=0;entryDy=0;endArrow=block;endFill=1;jumpSize=6;startSize=8;endSize=8;strokeWidth=4;" parent="1" source="KWVQ8asaE6--88MjjyIy-11" target="KWVQ8asaE6--88MjjyIy-8" edge="1">
          <mxGeometry relative="1" as="geometry" />
        </mxCell>
        <mxCell id="8YpLksILpJDQ-rm5mKkd-7" style="edgeStyle=orthogonalEdgeStyle;rounded=0;orthogonalLoop=1;jettySize=auto;html=1;entryX=1;entryY=0.5;entryDx=0;entryDy=0;dashed=1;strokeWidth=4;" edge="1" parent="1" source="KWVQ8asaE6--88MjjyIy-14" target="KWVQ8asaE6--88MjjyIy-8">
          <mxGeometry relative="1" as="geometry" />
        </mxCell>
        <mxCell id="8YpLksILpJDQ-rm5mKkd-8" style="edgeStyle=orthogonalEdgeStyle;rounded=0;orthogonalLoop=1;jettySize=auto;html=1;entryX=1;entryY=0.5;entryDx=0;entryDy=0;dashed=1;strokeWidth=4;" edge="1" parent="1" source="KWVQ8asaE6--88MjjyIy-14" target="KWVQ8asaE6--88MjjyIy-12">
          <mxGeometry relative="1" as="geometry" />
        </mxCell>
        <mxCell id="8YpLksILpJDQ-rm5mKkd-16" style="edgeStyle=orthogonalEdgeStyle;rounded=0;orthogonalLoop=1;jettySize=auto;html=1;entryX=0.5;entryY=1;entryDx=0;entryDy=0;dashed=1;strokeWidth=4;strokeColor=#00CC00;" edge="1" parent="1" source="KWVQ8asaE6--88MjjyIy-17" target="KWVQ8asaE6--88MjjyIy-27">
          <mxGeometry relative="1" as="geometry">
            <Array as="points">
              <mxPoint x="1040" y="620" />
              <mxPoint x="365" y="620" />
            </Array>
          </mxGeometry>
        </mxCell>
        <mxCell id="8YpLksILpJDQ-rm5mKkd-9" style="edgeStyle=orthogonalEdgeStyle;rounded=0;orthogonalLoop=1;jettySize=auto;html=1;entryX=0;entryY=0.5;entryDx=0;entryDy=0;dashed=1;strokeWidth=4;strokeColor=#FF8000;exitX=0.5;exitY=1;exitDx=0;exitDy=0;" edge="1" parent="1" source="KWVQ8asaE6--88MjjyIy-20" target="KWVQ8asaE6--88MjjyIy-24">
          <mxGeometry relative="1" as="geometry">
            <Array as="points">
              <mxPoint x="-235" y="635" />
              <mxPoint x="210" y="635" />
              <mxPoint x="210" y="470" />
            </Array>
          </mxGeometry>
        </mxCell>
        <mxCell id="8YpLksILpJDQ-rm5mKkd-10" style="edgeStyle=orthogonalEdgeStyle;rounded=0;orthogonalLoop=1;jettySize=auto;html=1;entryX=0;entryY=0.5;entryDx=0;entryDy=0;dashed=1;strokeWidth=4;strokeColor=#FF0000;" edge="1" parent="1" source="KWVQ8asaE6--88MjjyIy-21" target="KWVQ8asaE6--88MjjyIy-25">
          <mxGeometry relative="1" as="geometry">
            <Array as="points">
              <mxPoint x="230" y="305" />
              <mxPoint x="230" y="410" />
            </Array>
          </mxGeometry>
        </mxCell>
        <mxCell id="8YpLksILpJDQ-rm5mKkd-11" value="" style="group" vertex="1" connectable="0" parent="1">
          <mxGeometry x="-380" y="450" width="290" height="110" as="geometry" />
        </mxCell>
        <mxCell id="KWVQ8asaE6--88MjjyIy-18" value="&lt;b&gt;MergeGameField.gd (no class_name)&lt;/b&gt;" style="rounded=0;whiteSpace=wrap;html=1;" parent="8YpLksILpJDQ-rm5mKkd-11" vertex="1">
          <mxGeometry width="290" height="30" as="geometry" />
        </mxCell>
        <mxCell id="KWVQ8asaE6--88MjjyIy-19" value="onready game_slots = $&quot;GridContainer&quot;&lt;br&gt;&lt;div&gt;&lt;i&gt;#game_slots children are &lt;font color=&quot;#0800ff&quot;&gt;Slot&lt;/font&gt; class&lt;/i&gt;&lt;/div&gt;" style="rounded=0;whiteSpace=wrap;html=1;" parent="8YpLksILpJDQ-rm5mKkd-11" vertex="1">
          <mxGeometry y="30" width="290" height="40" as="geometry" />
        </mxCell>
        <mxCell id="KWVQ8asaE6--88MjjyIy-20" value="&lt;font color=&quot;#00cc00&quot;&gt;GridObserver&lt;/font&gt;.send_item_to_grid -&amp;gt; instantiate_item_on_empty_slot()" style="rounded=0;whiteSpace=wrap;html=1;" parent="8YpLksILpJDQ-rm5mKkd-11" vertex="1">
          <mxGeometry y="70" width="290" height="40" as="geometry" />
        </mxCell>
        <mxCell id="8YpLksILpJDQ-rm5mKkd-12" value="" style="group" vertex="1" connectable="0" parent="1">
          <mxGeometry x="-40" y="450" width="180" height="90" as="geometry" />
        </mxCell>
        <mxCell id="KWVQ8asaE6--88MjjyIy-5" value="&lt;b&gt;(Panel) Slot&lt;/b&gt;" style="rounded=0;whiteSpace=wrap;html=1;" parent="8YpLksILpJDQ-rm5mKkd-12" vertex="1">
          <mxGeometry width="180" height="30" as="geometry" />
        </mxCell>
        <mxCell id="KWVQ8asaE6--88MjjyIy-6" value="ItemObject: PackedScene [Item]&lt;div&gt;&amp;nbsp;ItemDragPreview: PackedScene&lt;/div&gt;&lt;div&gt;&lt;br&gt;&lt;/div&gt;&lt;div&gt;item: Item&lt;/div&gt;" style="rounded=0;whiteSpace=wrap;html=1;" parent="8YpLksILpJDQ-rm5mKkd-12" vertex="1">
          <mxGeometry y="30" width="180" height="60" as="geometry" />
        </mxCell>
        <mxCell id="8YpLksILpJDQ-rm5mKkd-13" value="" style="group" vertex="1" connectable="0" parent="1">
          <mxGeometry x="-96" y="200" width="290" height="180" as="geometry" />
        </mxCell>
        <mxCell id="KWVQ8asaE6--88MjjyIy-1" value="item_data : Resource [MergableItemData]&lt;div&gt;tier: int&lt;/div&gt;" style="rounded=0;whiteSpace=wrap;html=1;" parent="8YpLksILpJDQ-rm5mKkd-13" vertex="1">
          <mxGeometry y="30" width="290" height="50" as="geometry" />
        </mxCell>
        <mxCell id="KWVQ8asaE6--88MjjyIy-2" value="&lt;b&gt;(TextureRect) Item&lt;/b&gt;" style="rounded=0;whiteSpace=wrap;html=1;" parent="8YpLksILpJDQ-rm5mKkd-13" vertex="1">
          <mxGeometry width="290" height="30" as="geometry" />
        </mxCell>
        <mxCell id="KWVQ8asaE6--88MjjyIy-21" value="refresh():&amp;nbsp;&lt;font color=&quot;#00cc00&quot;&gt;GridObserver&lt;/font&gt;.send_item_to_observer()" style="rounded=0;whiteSpace=wrap;html=1;" parent="8YpLksILpJDQ-rm5mKkd-13" vertex="1">
          <mxGeometry y="80" width="290" height="50" as="geometry" />
        </mxCell>
        <mxCell id="KWVQ8asaE6--88MjjyIy-22" value="reset():&amp;nbsp;&lt;font color=&quot;#00cc00&quot;&gt;GridObserver&lt;/font&gt;.remove_item_from_observer()" style="rounded=0;whiteSpace=wrap;html=1;" parent="8YpLksILpJDQ-rm5mKkd-13" vertex="1">
          <mxGeometry y="130" width="290" height="50" as="geometry" />
        </mxCell>
        <mxCell id="8YpLksILpJDQ-rm5mKkd-14" style="edgeStyle=orthogonalEdgeStyle;rounded=0;orthogonalLoop=1;jettySize=auto;html=1;entryX=0;entryY=0.5;entryDx=0;entryDy=0;strokeWidth=4;dashed=1;strokeColor=#3333FF;" edge="1" parent="1" source="KWVQ8asaE6--88MjjyIy-22" target="KWVQ8asaE6--88MjjyIy-26">
          <mxGeometry relative="1" as="geometry">
            <Array as="points">
              <mxPoint x="210" y="355" />
              <mxPoint x="210" y="440" />
            </Array>
          </mxGeometry>
        </mxCell>
        <mxCell id="8YpLksILpJDQ-rm5mKkd-17" style="edgeStyle=orthogonalEdgeStyle;rounded=0;orthogonalLoop=1;jettySize=auto;html=1;entryX=1;entryY=0.75;entryDx=0;entryDy=0;dashed=1;strokeWidth=4;" edge="1" parent="1" source="KWVQ8asaE6--88MjjyIy-6" target="KWVQ8asaE6--88MjjyIy-19">
          <mxGeometry relative="1" as="geometry" />
        </mxCell>
        <mxCell id="8YpLksILpJDQ-rm5mKkd-18" value="" style="group" vertex="1" connectable="0" parent="1">
          <mxGeometry x="250" y="60" width="230" height="100" as="geometry" />
        </mxCell>
        <mxCell id="KWVQ8asaE6--88MjjyIy-3" value="name: String&lt;div&gt;is_generator: bool&lt;/div&gt;&lt;div&gt;sprites: Array [Sprite]&lt;/div&gt;&lt;div&gt;items_to_generate: Array [PackedScene]&lt;/div&gt;" style="rounded=0;whiteSpace=wrap;html=1;" parent="8YpLksILpJDQ-rm5mKkd-18" vertex="1">
          <mxGeometry y="30" width="230" height="70" as="geometry" />
        </mxCell>
        <mxCell id="KWVQ8asaE6--88MjjyIy-4" value="&lt;b&gt;(Resource) MergableItemData&lt;/b&gt;" style="rounded=0;whiteSpace=wrap;html=1;" parent="8YpLksILpJDQ-rm5mKkd-18" vertex="1">
          <mxGeometry width="230" height="30" as="geometry" />
        </mxCell>
        <mxCell id="8YpLksILpJDQ-rm5mKkd-19" value="" style="group" vertex="1" connectable="0" parent="1">
          <mxGeometry x="550" y="200" width="230" height="70" as="geometry" />
        </mxCell>
        <mxCell id="KWVQ8asaE6--88MjjyIy-9" value="&lt;b&gt;(Resource) OrderElementData&lt;/b&gt;" style="rounded=0;whiteSpace=wrap;html=1;" parent="8YpLksILpJDQ-rm5mKkd-19" vertex="1">
          <mxGeometry width="230" height="30" as="geometry" />
        </mxCell>
        <mxCell id="KWVQ8asaE6--88MjjyIy-10" value="item_data: Resource [MergableItemData]&lt;div&gt;tier: int&lt;/div&gt;" style="rounded=0;whiteSpace=wrap;html=1;" parent="8YpLksILpJDQ-rm5mKkd-19" vertex="1">
          <mxGeometry y="30" width="230" height="40" as="geometry" />
        </mxCell>
        <mxCell id="8YpLksILpJDQ-rm5mKkd-20" value="" style="group" vertex="1" connectable="0" parent="1">
          <mxGeometry x="550" y="335" width="230" height="70" as="geometry" />
        </mxCell>
        <mxCell id="KWVQ8asaE6--88MjjyIy-7" value="&lt;b&gt;(Resource) OrderData&lt;/b&gt;" style="rounded=0;whiteSpace=wrap;html=1;" parent="8YpLksILpJDQ-rm5mKkd-20" vertex="1">
          <mxGeometry width="230" height="30" as="geometry" />
        </mxCell>
        <mxCell id="KWVQ8asaE6--88MjjyIy-8" value="order: Array [OrderElementData]" style="rounded=0;whiteSpace=wrap;html=1;" parent="8YpLksILpJDQ-rm5mKkd-20" vertex="1">
          <mxGeometry y="30" width="230" height="40" as="geometry" />
        </mxCell>
        <mxCell id="8YpLksILpJDQ-rm5mKkd-21" value="" style="group" vertex="1" connectable="0" parent="1">
          <mxGeometry x="520" y="455" width="290" height="110" as="geometry" />
        </mxCell>
        <mxCell id="KWVQ8asaE6--88MjjyIy-11" value="&lt;b&gt;(OrderData) RandomOrderData&lt;/b&gt;" style="rounded=0;whiteSpace=wrap;html=1;" parent="8YpLksILpJDQ-rm5mKkd-21" vertex="1">
          <mxGeometry width="290" height="30" as="geometry" />
        </mxCell>
        <mxCell id="KWVQ8asaE6--88MjjyIy-12" value="order_size: int&lt;div&gt;order_possible_elements: Array [OrderElementData]&lt;/div&gt;" style="rounded=0;whiteSpace=wrap;html=1;" parent="8YpLksILpJDQ-rm5mKkd-21" vertex="1">
          <mxGeometry y="30" width="290" height="40" as="geometry" />
        </mxCell>
        <mxCell id="KWVQ8asaE6--88MjjyIy-15" value="&lt;font color=&quot;#ff3721&quot;&gt;generate_order() #we&#39;re getting rid of it&lt;/font&gt;" style="rounded=0;whiteSpace=wrap;html=1;" parent="8YpLksILpJDQ-rm5mKkd-21" vertex="1">
          <mxGeometry y="70" width="290" height="40" as="geometry" />
        </mxCell>
        <mxCell id="8YpLksILpJDQ-rm5mKkd-22" value="" style="group" vertex="1" connectable="0" parent="1">
          <mxGeometry x="880" y="335" width="300" height="150" as="geometry" />
        </mxCell>
        <mxCell id="KWVQ8asaE6--88MjjyIy-13" value="&lt;b&gt;(ColorRect) OrderList&lt;/b&gt;" style="rounded=0;whiteSpace=wrap;html=1;" parent="8YpLksILpJDQ-rm5mKkd-22" vertex="1">
          <mxGeometry width="300" height="30" as="geometry" />
        </mxCell>
        <mxCell id="KWVQ8asaE6--88MjjyIy-14" value="order_data: Resource [OrderData/RandomOrderData]" style="rounded=0;whiteSpace=wrap;html=1;" parent="8YpLksILpJDQ-rm5mKkd-22" vertex="1">
          <mxGeometry y="30" width="300" height="40" as="geometry" />
        </mxCell>
        <mxCell id="KWVQ8asaE6--88MjjyIy-16" value="read_order_data()" style="rounded=0;whiteSpace=wrap;html=1;" parent="8YpLksILpJDQ-rm5mKkd-22" vertex="1">
          <mxGeometry y="70" width="300" height="40" as="geometry" />
        </mxCell>
        <mxCell id="KWVQ8asaE6--88MjjyIy-17" value="_on_Button_pressed(): &lt;font color=&quot;#00cc00&quot;&gt;GridObserver&lt;/font&gt;.check_order()" style="rounded=0;whiteSpace=wrap;html=1;" parent="8YpLksILpJDQ-rm5mKkd-22" vertex="1">
          <mxGeometry y="110" width="300" height="40" as="geometry" />
        </mxCell>
        <mxCell id="8YpLksILpJDQ-rm5mKkd-23" value="" style="group" vertex="1" connectable="0" parent="1">
          <mxGeometry x="265" y="365" width="200" height="150" as="geometry" />
        </mxCell>
        <mxCell id="KWVQ8asaE6--88MjjyIy-23" value="&lt;b&gt;(Autoload) &lt;font color=&quot;#00cc00&quot;&gt;GridObserver&lt;/font&gt;&lt;/b&gt;" style="rounded=0;whiteSpace=wrap;html=1;" parent="8YpLksILpJDQ-rm5mKkd-23" vertex="1">
          <mxGeometry width="200" height="30" as="geometry" />
        </mxCell>
        <mxCell id="KWVQ8asaE6--88MjjyIy-24" value="send_item_to_grid(Resource)" style="rounded=0;whiteSpace=wrap;html=1;" parent="8YpLksILpJDQ-rm5mKkd-23" vertex="1">
          <mxGeometry y="90" width="200" height="30" as="geometry" />
        </mxCell>
        <mxCell id="KWVQ8asaE6--88MjjyIy-25" value="send_item_to_observer(Item)" style="rounded=0;whiteSpace=wrap;html=1;" parent="8YpLksILpJDQ-rm5mKkd-23" vertex="1">
          <mxGeometry y="30" width="200" height="30" as="geometry" />
        </mxCell>
        <mxCell id="KWVQ8asaE6--88MjjyIy-26" value="remove_item_from_observer(Item)" style="rounded=0;whiteSpace=wrap;html=1;" parent="8YpLksILpJDQ-rm5mKkd-23" vertex="1">
          <mxGeometry y="60" width="200" height="30" as="geometry" />
        </mxCell>
        <mxCell id="KWVQ8asaE6--88MjjyIy-27" value="check_order(OrderList, OrderData)" style="rounded=0;whiteSpace=wrap;html=1;" parent="8YpLksILpJDQ-rm5mKkd-23" vertex="1">
          <mxGeometry y="120" width="200" height="30" as="geometry" />
        </mxCell>
        <mxCell id="8YpLksILpJDQ-rm5mKkd-24" value="В MergeField объекте на сцене лежит 25 объектов Slot" style="shape=callout;whiteSpace=wrap;html=1;perimeter=calloutPerimeter;position2=0.38;" vertex="1" parent="1">
          <mxGeometry x="-280" y="345" width="160" height="105" as="geometry" />
        </mxCell>
      </root>
    </mxGraphModel>
  </diagram>
</mxfile>
